<?xml version="1.0" encoding="utf-8" ?>
<svg xmlns="http://www.w3.org/2000/svg" xmlns:xlink="http://www.w3.org/1999/xlink" width="1359" height="1600">
	<path fill="#144B78" d="M0 185.371C2.62856 171.997 3.02167 158.162 6.24679 144.901Q6.78788 142.768 7.37787 140.648Q7.96786 138.528 8.60643 136.422Q9.245 134.316 9.93181 132.225Q10.6186 130.135 11.3533 128.06Q12.088 125.986 12.8702 123.929Q13.6524 121.872 14.4816 119.834Q15.3109 117.795 16.1868 115.777Q17.0627 113.758 17.9848 111.76Q18.9069 109.762 19.8747 107.786Q20.8424 105.809 21.8554 103.856Q22.8683 101.902 23.9259 99.9725Q24.9835 98.0427 26.0852 96.1379Q27.1869 94.233 28.332 92.3539Q29.4772 90.4749 30.6653 88.6227Q31.8533 86.7705 33.0837 84.9461Q34.314 83.1217 35.586 81.3261Q36.8579 79.5305 38.1708 77.7647Q39.4837 75.9988 40.8368 74.2636Q42.19 72.5284 43.5827 70.8248Q44.9753 69.1211 46.4068 67.45Q47.8383 65.7789 49.3078 64.1411Q50.7773 62.5033 52.284 60.8998Q53.7908 59.2963 55.334 57.7278Q56.8773 56.1594 58.4562 54.6268Q60.035 53.0943 61.6488 51.5985Q63.2625 50.1026 64.9101 48.6443Q66.5578 47.186 68.2385 45.766Q69.9193 44.346 71.6322 42.965Q73.3452 41.584 75.0894 40.2428Q76.8336 38.9016 78.6083 37.6009Q80.3829 36.3001 82.1869 35.0405Q83.991 33.781 85.8235 32.5632Q88.2525 30.9594 90.7302 29.4318Q93.2078 27.9042 95.7316 26.4542Q98.2554 25.0043 100.823 23.6334Q103.391 22.2625 106 20.972Q108.609 19.6815 111.256 18.4726Q113.904 17.2637 116.588 16.1376Q119.272 15.0115 121.989 13.9692Q124.707 12.927 127.456 11.9696Q130.204 11.0123 132.981 10.1407Q135.758 9.26916 138.561 8.48425Q141.364 7.69933 144.189 7.00181Q147.015 6.30429 149.861 5.69483Q152.707 5.08538 155.571 4.56458Q158.434 4.04378 161.312 3.61214Q164.191 3.1805 167.081 2.83843Q169.971 2.49637 172.871 2.2442C196.199 0.0135439 220.446 1.02002 243.887 1.02832L356.259 1.07933L721.004 1.02097L1039.67 0.9875L1128.5 1.02282C1154.59 1.07792 1181.65 -0.0279343 1207.35 5.1634Q1209.61 5.62706 1211.86 6.14594Q1214.11 6.66482 1216.34 7.23863Q1218.58 7.81243 1220.8 8.4408Q1223.02 9.06918 1225.23 9.75175Q1227.43 10.4343 1229.62 11.1707Q1231.81 11.907 1233.98 12.6967Q1236.15 13.4864 1238.29 14.329Q1240.44 15.1716 1242.57 16.0665Q1244.7 16.9615 1246.8 17.9083Q1248.91 18.855 1250.99 19.8531Q1253.07 20.8511 1255.13 21.8998Q1257.18 22.9485 1259.21 24.0473Q1261.24 25.146 1263.25 26.2941Q1265.25 27.4423 1267.22 28.6391Q1269.2 29.8359 1271.14 31.0807Q1273.08 32.3254 1275 33.6175Q1276.91 34.9095 1278.79 36.2479Q1280.67 37.5864 1282.52 38.9705Q1284.37 40.3546 1286.18 41.7836Q1287.99 43.2125 1289.77 44.6854Q1291.55 46.1583 1293.29 47.6743Q1295.03 49.1903 1296.73 50.7484Q1298.43 52.3066 1300.1 53.906Q1301.76 55.5054 1303.39 57.145Q1305.01 58.7847 1306.6 60.4637Q1308.18 62.1426 1309.72 63.8599Q1311.27 65.5772 1312.77 67.3317Q1314.27 69.0862 1315.72 70.877Q1317.18 72.6677 1318.59 74.4936Q1320.01 76.3194 1321.37 78.1794Q1322.74 80.0393 1324.06 81.9321Q1325.39 83.825 1326.66 85.7496C1341.02 107.603 1351.36 132.685 1355.37 158.575C1356.85 168.104 1356.79 178.239 1359 187.583L1359 1110.77C1356.11 1126.81 1355.05 1142.71 1350.98 1158.6C1340.33 1200.2 1311.34 1238.52 1276.36 1262.88C1228.14 1296.47 1185.44 1296.76 1128.94 1296.77L1045.91 1296.77Q1048.79 1393.35 1052.95 1489.88L1055.56 1558.24C1056.05 1571.5 1055.98 1585.28 1057.54 1598.43C1047.41 1593.01 1037.87 1583.94 1028.59 1577.06L967.082 1531.79L748.283 1370.18L684.44 1323.22C672.661 1314.47 660.812 1304.31 648.188 1296.84L321.067 1296.74L235.889 1296.74C206.267 1296.72 175.615 1298.14 146.57 1291.37Q143.324 1290.6 140.106 1289.71Q136.889 1288.82 133.705 1287.82Q130.521 1286.82 127.374 1285.71Q124.227 1284.6 121.121 1283.38Q118.016 1282.15 114.955 1280.82Q111.894 1279.49 108.882 1278.06Q105.869 1276.62 102.91 1275.08Q99.9498 1273.53 97.0461 1271.89Q94.1424 1270.24 91.2984 1268.5Q88.4543 1266.75 85.6735 1264.9Q82.8927 1263.06 80.1786 1261.12Q77.4644 1259.17 74.8203 1257.14Q72.1761 1255.1 69.6053 1252.97Q67.0344 1250.84 64.5401 1248.62Q62.0457 1246.41 59.6309 1244.1Q57.2161 1241.8 54.8838 1239.41C30.6597 1214.71 12.4983 1182.74 5.62806 1148.7C3.20963 1136.72 2.89587 1123.96 0 1112.21L0 185.371ZM981.596 1454.28C982.514 1430.66 979.989 1406.29 979.327 1382.62L975.2 1279.54C974.579 1262.34 973.279 1244.67 973.816 1227.47C991.725 1226.73 1009.8 1227.26 1027.73 1227.29L1121.09 1227.35C1145.65 1227.35 1173.22 1229.69 1197.15 1223.8Q1199.28 1223.28 1201.38 1222.68Q1203.49 1222.08 1205.57 1221.41Q1207.65 1220.73 1209.71 1219.98Q1211.77 1219.23 1213.79 1218.4Q1215.82 1217.57 1217.82 1216.67Q1219.81 1215.77 1221.77 1214.8Q1223.73 1213.82 1225.66 1212.78Q1227.58 1211.73 1229.46 1210.62Q1231.35 1209.5 1233.19 1208.32Q1235.03 1207.13 1236.83 1205.88Q1238.63 1204.63 1240.38 1203.32Q1242.13 1202 1243.83 1200.62Q1245.53 1199.24 1247.18 1197.8Q1248.82 1196.36 1250.42 1194.86Q1252.01 1193.36 1253.55 1191.8Q1255.09 1190.24 1256.57 1188.63C1272.39 1171.48 1284.32 1148.73 1287.35 1125.44C1289.33 1110.19 1288.67 1094.43 1288.68 1079.07L1288.69 1010.3L1288.66 778.171L1288.62 387.393L1288.65 258.31C1288.65 233.985 1289.34 209.388 1288.26 185.089C1286.82 152.677 1273.3 123.753 1249.34 101.764C1231.86 85.7291 1210.64 75.246 1187.07 71.9696C1173.62 70.0995 1159.62 70.5635 1146.07 70.5865L1091.89 70.7226L906.823 70.809L314.974 70.7031L236.014 70.7046C210.476 70.7103 182.252 68.3224 157.499 75.099C137.441 80.5903 119.598 91.6687 105.001 106.404Q103.34 108.07 101.747 109.8Q100.154 111.53 98.6314 113.323Q97.1085 115.116 95.6583 116.967Q94.2081 118.819 92.8328 120.727Q91.4575 122.636 90.1594 124.597Q88.8612 126.559 87.6422 128.57Q86.4232 130.582 85.2853 132.64Q84.1474 134.699 83.0925 136.802Q82.0375 138.904 81.0671 141.047Q80.0968 143.189 79.2125 145.369Q78.3283 147.549 77.5316 149.762Q76.7349 151.975 76.027 154.219Q75.3192 156.462 74.7012 158.732Q74.0833 161.001 73.5562 163.294Q73.0292 165.586 72.5939 167.898Q72.1586 170.21 71.8158 172.537C69.6946 187.363 70.1201 202.583 70.0937 217.52L70.076 273.946L70.0856 464.493L70.1114 1098.51C70.4456 1134.84 79.8149 1166.5 106.29 1192.66Q107.885 1194.25 109.539 1195.77Q111.193 1197.29 112.904 1198.75Q114.615 1200.21 116.38 1201.6Q118.145 1203 119.962 1204.32Q121.779 1205.65 123.645 1206.9Q125.511 1208.16 127.424 1209.34Q129.336 1210.52 131.293 1211.63Q133.249 1212.74 135.246 1213.77Q137.243 1214.81 139.278 1215.76Q141.313 1216.72 143.383 1217.6Q145.453 1218.48 147.555 1219.28Q149.657 1220.08 151.788 1220.79Q153.918 1221.51 156.075 1222.15Q158.232 1222.79 160.411 1223.34Q162.59 1223.89 164.789 1224.36Q166.988 1224.83 169.203 1225.22C187.055 1228.5 206.13 1227.36 224.247 1227.37L302.037 1227.37L587.233 1227.39C600.046 1227.38 662.282 1225.48 670.416 1228.45C680.585 1232.16 691.249 1241.97 699.952 1248.42L740.496 1278.45L895.433 1392.76C906.878 1401.16 976.063 1453.92 980.736 1454.33C981.022 1454.36 981.31 1454.3 981.596 1454.28Z"/>
	<path fill="#144B78" d="M255.789 183.722C267.895 182.569 279.417 184.244 289.475 191.521C303.123 201.396 307.763 215.763 310.295 231.686C328.587 249.432 345.96 268.279 363.612 286.665C406.362 331.194 448.571 376.41 492.216 420.058C530.587 391.268 587.339 370.505 634.688 363.802Q637.857 363.331 641.034 362.922Q644.211 362.513 647.396 362.165Q650.58 361.817 653.771 361.532Q656.962 361.246 660.157 361.022Q663.353 360.798 666.552 360.635Q669.752 360.473 672.953 360.373Q676.155 360.273 679.359 360.235Q682.562 360.197 685.765 360.221Q688.969 360.245 692.171 360.331Q695.373 360.417 698.573 360.565Q701.773 360.713 704.97 360.923Q708.166 361.133 711.358 361.405Q714.55 361.677 717.736 362.01Q720.922 362.344 724.101 362.739Q727.28 363.134 730.451 363.591Q733.622 364.048 736.783 364.566Q739.944 365.084 743.095 365.663Q746.246 366.242 749.385 366.883Q752.524 367.523 755.649 368.224Q758.775 368.924 761.887 369.686Q764.999 370.447 768.095 371.268Q771.192 372.09 774.272 372.971Q777.352 373.852 780.414 374.793Q783.476 375.733 786.52 376.733Q789.563 377.733 792.587 378.792Q795.611 379.85 798.613 380.967Q801.616 382.084 804.596 383.259Q807.576 384.434 810.534 385.666Q813.49 386.898 816.423 388.188Q819.356 389.477 822.263 390.823Q825.17 392.169 828.051 393.571Q830.931 394.973 833.784 396.431C847.439 403.429 860.758 410.926 873.034 420.172C908.502 384.874 942.606 348.132 977.417 312.18L1016.44 271.526C1026.11 261.509 1036.53 251.584 1045 240.524C1045.93 227.103 1047.35 214.608 1055.55 203.426Q1056.21 202.535 1056.92 201.678Q1057.62 200.821 1058.37 199.999Q1059.11 199.178 1059.9 198.394Q1060.69 197.61 1061.51 196.865Q1062.33 196.121 1063.19 195.417Q1064.05 194.714 1064.94 194.053Q1065.83 193.393 1066.76 192.777Q1067.68 192.161 1068.63 191.591Q1069.58 191.021 1070.56 190.498Q1071.54 189.976 1072.54 189.502Q1073.55 189.028 1074.57 188.603Q1075.6 188.179 1076.64 187.806Q1077.69 187.432 1078.75 187.11Q1079.81 186.788 1080.89 186.519Q1081.97 186.249 1083.05 186.033Q1084.14 185.817 1085.24 185.654Q1086.35 185.488 1087.47 185.378Q1088.59 185.267 1089.72 185.213Q1090.84 185.158 1091.97 185.159Q1093.09 185.16 1094.21 185.217Q1095.34 185.274 1096.46 185.386Q1097.58 185.499 1098.69 185.667Q1099.8 185.835 1100.91 186.058Q1102.01 186.281 1103.1 186.558Q1104.19 186.835 1105.26 187.166Q1106.34 187.498 1107.4 187.882Q1108.46 188.266 1109.49 188.702Q1110.53 189.138 1111.54 189.624Q1112.56 190.111 1113.55 190.648Q1114.54 191.185 1115.5 191.77Q1116.46 192.355 1117.39 192.987Q1118.32 193.619 1119.22 194.296Q1120.18 195.022 1121.1 195.795Q1122.01 196.568 1122.89 197.387Q1123.77 198.205 1124.61 199.067Q1125.45 199.929 1126.24 200.831Q1127.03 201.734 1127.78 202.676Q1128.52 203.617 1129.22 204.595Q1129.92 205.572 1130.56 206.584Q1131.21 207.596 1131.81 208.639Q1132.4 209.681 1132.95 210.753Q1133.49 211.825 1133.98 212.922Q1134.46 214.02 1134.9 215.14Q1135.33 216.261 1135.7 217.402Q1136.08 218.543 1136.4 219.702Q1136.71 220.86 1136.97 222.033Q1137.23 223.206 1137.43 224.39Q1137.63 225.575 1137.77 226.768C1139.4 239.676 1136.32 253.493 1128.19 263.83C1119.82 274.459 1107.37 280.556 1094.09 282.074C1093.96 282.297 1093.84 282.521 1093.71 282.743C1093.49 283.112 1093.27 283.474 1093.06 283.846C1086.23 295.939 1062.38 317.694 1051.44 328.957Q1007.6 374.108 964.28 419.765C950.949 433.755 936.089 447.242 923.986 462.275C986.896 532.347 1021.5 606.656 1025.02 701.758Q1025.19 705.997 1025.25 710.239Q1025.32 714.48 1025.28 718.722Q1025.25 722.964 1025.12 727.204Q1024.99 731.444 1024.75 735.68Q1024.52 739.916 1024.19 744.145Q1023.86 748.374 1023.43 752.594Q1023 756.815 1022.47 761.024Q1021.94 765.233 1021.31 769.428Q1020.68 773.623 1019.95 777.803Q1019.23 781.982 1018.4 786.143Q1017.58 790.304 1016.65 794.445Q1015.73 798.586 1014.71 802.704Q1013.69 806.821 1012.58 810.914Q1011.46 815.007 1010.25 819.073Q1009.04 823.138 1007.74 827.174Q1006.43 831.21 1005.03 835.214Q1003.63 839.218 1002.13 843.188Q1000.64 847.158 999.053 851.092Q997.466 855.026 995.787 858.922Q994.109 862.818 992.339 866.673Q990.569 870.528 988.709 874.34Q986.849 878.153 984.901 881.921Q982.952 885.688 980.915 889.409Q978.879 893.13 976.755 896.803Q974.632 900.475 972.423 904.096Q970.214 907.717 967.921 911.286Q965.627 914.854 963.251 918.367Q960.874 921.881 958.416 925.338Q955.958 928.795 953.419 932.193Q950.88 935.591 948.262 938.928Q945.644 942.266 942.949 945.541Q940.254 948.816 937.482 952.027Q934.737 955.22 931.914 958.343Q929.091 961.467 926.19 964.519Q923.29 967.571 920.314 970.55Q917.339 973.529 914.29 976.432Q911.241 979.336 908.121 982.163Q905.001 984.99 901.811 987.738Q898.622 990.486 895.365 993.154Q892.107 995.822 888.785 998.408Q885.462 1000.99 882.076 1003.5Q878.691 1006 875.243 1008.42Q871.796 1010.83 868.29 1013.16Q864.783 1015.49 861.22 1017.74Q857.657 1019.98 854.039 1022.13Q850.421 1024.28 846.75 1026.34Q843.079 1028.41 839.358 1030.38Q835.638 1032.35 831.869 1034.22Q828.1 1036.1 824.286 1037.88Q820.471 1039.66 816.614 1041.35Q812.756 1043.03 808.858 1044.62Q804.96 1046.21 801.023 1047.71Q797.086 1049.2 793.114 1050.59Q789.141 1051.98 785.135 1053.28Q781.129 1054.57 777.091 1055.76Q773.054 1056.96 768.989 1058.05Q764.923 1059.14 760.832 1060.13Q756.74 1061.13 752.625 1062.01Q748.51 1062.9 744.374 1063.69Q740.238 1064.47 736.084 1065.16Q731.93 1065.84 727.76 1066.42Q723.59 1067 719.407 1067.47Q715.224 1067.94 711.031 1068.31Q706.837 1068.68 702.636 1068.95C611.976 1074.72 525.78 1042.03 458.102 982.363C387.314 919.952 347.019 828.575 341.258 735.184Q341.037 731.538 340.889 727.888Q340.742 724.238 340.668 720.586Q340.595 716.934 340.595 713.281Q340.596 709.628 340.67 705.976Q340.745 702.324 340.893 698.674Q341.042 695.024 341.264 691.378Q341.486 687.732 341.783 684.091Q342.079 680.45 342.449 676.816Q342.819 673.182 343.262 669.556Q343.706 665.93 344.222 662.314Q344.739 658.698 345.329 655.093Q345.919 651.488 346.582 647.896Q347.245 644.304 347.98 640.726Q348.716 637.148 349.524 633.586Q350.331 630.023 351.211 626.478Q352.091 622.933 353.043 619.406Q353.994 615.879 355.017 612.373Q356.039 608.866 357.133 605.381Q358.227 601.895 359.39 598.433Q360.554 594.971 361.788 591.533Q363.022 588.094 364.325 584.682Q365.628 581.27 367 577.885Q368.372 574.499 369.813 571.142Q371.253 567.786 372.761 564.459Q374.269 561.132 375.845 557.836Q377.42 554.541 379.061 551.278Q380.703 548.015 382.41 544.786Q384.118 541.557 385.89 538.363Q387.662 535.169 389.499 532.012Q391.336 528.855 393.236 525.735Q395.137 522.616 397.1 519.536Q399.063 516.456 401.088 513.416C413.25 495.289 427.225 478.927 441.64 462.596C434.145 453.211 425.118 444.719 416.809 436.041L373.427 390.796L309.244 324.235C295 309.448 281.053 294.361 266.249 280.128C256.731 279.732 247.91 277.896 239.622 272.981C228.638 266.469 221.176 255.778 218.236 243.408C215.181 230.554 217.167 216.381 224.147 205.105C231.521 193.192 242.38 186.775 255.789 183.722ZM701.564 1003.16C771.753 998.708 839.497 963.558 885.801 911.004C939.746 849.776 963.277 771.492 958.179 690.63C953.435 615.375 916.332 542.37 859.847 492.82Q857.393 490.658 854.886 488.558Q852.38 486.457 849.822 484.418Q847.265 482.38 844.658 480.404Q842.052 478.429 839.398 476.519Q836.743 474.608 834.043 472.763Q831.343 470.918 828.598 469.14Q825.853 467.362 823.066 465.652Q820.278 463.942 817.449 462.301Q814.621 460.659 811.753 459.088Q808.885 457.517 805.979 456.016Q803.073 454.516 800.131 453.087Q797.19 451.659 794.214 450.303Q791.238 448.947 788.23 447.664Q785.221 446.382 782.183 445.173Q779.144 443.965 776.076 442.832Q773.009 441.698 769.914 440.641Q766.82 439.583 763.7 438.601Q760.581 437.62 757.438 436.715Q754.296 435.811 751.132 434.984Q747.968 434.157 744.785 433.407Q741.602 432.658 738.401 431.987Q735.201 431.316 731.985 430.724Q728.769 430.132 725.539 429.619Q722.31 429.106 719.068 428.672Q715.827 428.239 712.576 427.885Q709.325 427.531 706.067 427.257Q702.808 426.983 699.544 426.789Q696.279 426.595 693.011 426.482Q689.743 426.368 686.473 426.334Q683.203 426.301 679.934 426.348Q676.664 426.395 673.396 426.522Q670.129 426.649 666.865 426.856L666.297 426.898C592.269 432.012 526.884 465.131 478.083 521.039C426.097 580.596 402.07 658.515 407.517 736.983Q407.758 740.564 408.087 744.139Q408.415 747.714 408.832 751.279Q409.248 754.844 409.752 758.398Q410.256 761.952 410.846 765.493Q411.437 769.034 412.115 772.559Q412.793 776.084 413.557 779.591Q414.32 783.098 415.17 786.586Q416.02 790.073 416.955 793.539Q417.891 797.005 418.91 800.446Q419.93 803.888 421.035 807.303Q422.139 810.719 423.326 814.106Q424.514 817.493 425.785 820.85Q427.055 824.208 428.408 827.532Q429.76 830.857 431.194 834.148Q432.628 837.439 434.142 840.693Q435.656 843.948 437.249 847.164Q438.843 850.38 440.515 853.557Q442.187 856.733 443.936 859.867Q445.686 863.001 447.512 866.091Q449.337 869.182 451.239 872.226Q453.14 875.27 455.115 878.267Q457.091 881.264 459.139 884.212Q461.187 887.159 463.307 890.055Q465.427 892.951 467.618 895.795Q469.809 898.638 472.068 901.427Q474.328 904.215 476.655 906.947Q478.983 909.68 481.377 912.354Q483.77 915.028 486.229 917.643Q488.688 920.258 491.21 922.811Q493.732 925.365 496.317 927.855Q498.901 930.346 501.545 932.773Q504.19 935.199 506.893 937.56C561.637 985.123 629.625 1006.58 701.564 1003.16Z"/>
	<path fill="#144B78" d="M827.061 776.816C837.006 776.228 849.753 774.666 859.497 776.199C861.957 776.586 864.497 777.341 865.884 779.581C869.941 786.135 863.835 805.273 861.876 812.714C851.532 846.73 830.518 873.961 801.857 894.708C757.79 926.606 700.31 936.974 647.139 928.335C599.858 920.653 553.431 895.71 525.25 856.286C511.849 837.539 495.354 800.464 499.207 776.766C509.981 776.143 523.676 774.949 534.28 776.979C535.133 777.142 537.519 777.747 538.102 778.42C539.756 780.332 540.515 787.264 541.073 789.85C544.543 805.935 549.504 819.655 559.124 833.147C580.737 863.458 617.953 882.103 654.173 888.151C695.951 895.127 743.367 886.287 777.961 861.361C798.966 846.226 815.727 825.499 822.7 800.24C824.812 792.591 825.758 784.634 827.061 776.816Z"/>
	<path fill="#144B78" d="M503.255 597.977Q504.412 597.879 505.573 597.839Q506.734 597.798 507.895 597.814Q509.057 597.83 510.216 597.903Q511.375 597.976 512.529 598.105Q513.683 598.235 514.83 598.421Q515.976 598.606 517.112 598.848Q518.249 599.09 519.371 599.387Q520.494 599.684 521.601 600.036Q522.708 600.387 523.797 600.793Q524.885 601.198 525.953 601.656Q527.02 602.115 528.063 602.624Q529.107 603.134 530.125 603.695Q531.142 604.255 532.131 604.864Q533.12 605.474 534.078 606.131Q535.035 606.788 535.96 607.491Q536.884 608.194 537.773 608.942Q538.662 609.69 539.514 610.48Q540.365 611.27 541.177 612.101Q541.989 612.932 542.759 613.802Q543.529 614.672 544.256 615.578Q544.982 616.484 545.664 617.425Q546.345 618.366 546.98 619.339Q547.615 620.312 548.201 621.315Q548.787 622.318 549.323 623.348Q549.86 624.379 550.345 625.434Q550.831 626.49 551.264 627.567Q551.698 628.645 552.078 629.743Q552.458 630.841 552.783 631.956Q553.109 633.071 553.38 634.201Q553.651 635.331 553.866 636.472Q554.082 637.614 554.241 638.765Q554.4 639.916 554.503 641.073Q554.606 642.23 554.652 643.391Q554.698 644.552 554.687 645.714Q554.676 646.875 554.608 648.035Q554.541 649.195 554.417 650.35Q554.292 651.505 554.112 652.653Q553.931 653.801 553.694 654.938Q553.458 656.076 553.166 657.2Q552.874 658.325 552.527 659.434Q552.181 660.543 551.78 661.633Q551.38 662.724 550.927 663.794Q550.473 664.863 549.968 665.909Q549.463 666.956 548.908 667.976Q548.352 668.996 547.747 669.988Q547.142 670.98 546.49 671.941Q545.837 672.902 545.138 673.83Q544.439 674.758 543.696 675.651Q542.953 676.543 542.166 677.398Q541.38 678.254 540.553 679.069Q539.726 679.885 538.86 680.659Q537.994 681.433 537.091 682.164Q536.188 682.895 535.251 683.581Q534.313 684.267 533.343 684.906Q532.374 685.545 531.373 686.136Q530.373 686.727 529.346 687.269Q528.318 687.81 527.265 688.3Q526.212 688.791 525.136 689.229Q524.061 689.667 522.965 690.052Q521.869 690.437 520.756 690.768Q519.642 691.099 518.514 691.375Q517.386 691.651 516.245 691.872Q515.105 692.092 513.955 692.256Q512.805 692.421 511.649 692.529Q510.486 692.638 509.319 692.689Q508.152 692.74 506.984 692.734Q505.815 692.727 504.649 692.664Q503.483 692.6 502.321 692.479Q501.159 692.358 500.004 692.18Q498.85 692.001 497.706 691.767Q496.561 691.532 495.43 691.241Q494.298 690.95 493.183 690.604Q492.067 690.258 490.969 689.857Q489.872 689.457 488.796 689.003Q487.72 688.548 486.667 688.042Q485.614 687.535 484.588 686.977Q483.561 686.419 482.563 685.812Q481.566 685.204 480.599 684.548Q479.632 683.892 478.699 683.189Q477.766 682.486 476.868 681.739Q475.971 680.991 475.111 680.199Q474.251 679.408 473.432 678.576Q472.612 677.743 471.834 676.871Q471.057 676 470.323 675.09Q469.589 674.181 468.9 673.237Q468.212 672.293 467.571 671.316Q466.93 670.339 466.338 669.332Q465.746 668.325 465.204 667.29Q464.662 666.255 464.172 665.194Q463.681 664.134 463.244 663.05Q462.806 661.967 462.422 660.863Q462.039 659.759 461.71 658.638Q461.381 657.517 461.107 656.381Q460.834 655.245 460.617 654.097Q460.399 652.949 460.239 651.791Q460.078 650.634 459.975 649.47Q459.872 648.306 459.826 647.138Q459.78 645.971 459.791 644.802Q459.803 643.634 459.872 642.468Q459.941 641.301 460.067 640.14Q460.194 638.978 460.377 637.824Q460.56 636.67 460.8 635.526Q461.04 634.383 461.336 633.252Q461.632 632.122 461.983 631.007Q462.334 629.893 462.739 628.797Q463.145 627.701 463.604 626.627Q464.063 625.552 464.574 624.502Q465.085 623.451 465.647 622.427Q466.21 621.402 466.822 620.407Q467.434 619.412 468.094 618.448Q468.754 617.484 469.461 616.554Q470.168 615.623 470.919 614.729Q471.671 613.834 472.466 612.978Q473.261 612.122 474.097 611.306Q474.933 610.49 475.808 609.716Q476.683 608.942 477.595 608.212Q478.507 607.482 479.454 606.797Q480.401 606.113 481.381 605.476Q482.36 604.84 483.37 604.252Q484.379 603.664 485.417 603.127Q486.454 602.589 487.516 602.104Q488.579 601.618 489.664 601.185Q490.749 600.752 491.854 600.373Q492.959 599.995 494.082 599.671Q495.204 599.347 496.341 599.078Q497.478 598.81 498.627 598.598Q499.775 598.386 500.933 598.23Q502.091 598.075 503.255 597.977Z"/>
	<path fill="#144B78" d="M845.16 597.928Q846.312 597.835 847.468 597.797Q848.623 597.76 849.779 597.779Q850.935 597.798 852.088 597.874Q853.242 597.949 854.39 598.08Q855.539 598.212 856.679 598.399Q857.82 598.586 858.95 598.829Q860.081 599.072 861.198 599.369Q862.315 599.666 863.416 600.018Q864.517 600.369 865.6 600.774Q866.683 601.178 867.745 601.635Q868.807 602.092 869.845 602.6Q870.884 603.108 871.896 603.667Q872.909 604.225 873.893 604.831Q874.877 605.438 875.83 606.092Q876.783 606.746 877.704 607.446Q878.624 608.145 879.509 608.889Q880.395 609.632 881.243 610.418Q882.091 611.204 882.899 612.03Q883.708 612.857 884.475 613.721Q885.243 614.586 885.967 615.487Q886.692 616.388 887.372 617.323Q888.052 618.258 888.685 619.226Q889.318 620.193 889.904 621.19Q890.49 622.187 891.026 623.211Q891.562 624.235 892.048 625.284Q892.534 626.334 892.969 627.405Q893.403 628.477 893.784 629.568Q894.166 630.66 894.494 631.769Q894.822 632.877 895.095 634.001Q895.369 635.124 895.587 636.26Q895.806 637.395 895.969 638.54Q896.132 639.685 896.239 640.836Q896.346 641.987 896.397 643.143Q896.448 644.298 896.443 645.454Q896.437 646.61 896.375 647.765Q896.314 648.92 896.196 650.07Q896.078 651.22 895.904 652.363Q895.731 653.506 895.502 654.64Q895.273 655.773 894.989 656.894Q894.705 658.015 894.366 659.121Q894.028 660.226 893.636 661.314Q893.245 662.402 892.801 663.47Q892.356 664.537 891.861 665.582Q891.365 666.626 890.819 667.646Q890.273 668.665 889.678 669.656Q889.084 670.648 888.441 671.609Q887.799 672.57 887.11 673.499Q886.422 674.428 885.689 675.322Q884.956 676.216 884.18 677.074Q883.405 677.931 882.589 678.75Q881.772 679.569 880.917 680.347Q880.062 681.125 879.17 681.86Q878.278 682.595 877.351 683.286Q876.424 683.977 875.464 684.622Q874.505 685.267 873.515 685.865Q872.526 686.462 871.508 687.011Q870.491 687.56 869.448 688.058Q868.404 688.557 867.338 689.004Q866.272 689.451 865.186 689.845Q864.099 690.24 862.994 690.581Q861.89 690.922 860.77 691.209Q859.65 691.496 858.518 691.728Q857.385 691.96 856.243 692.137Q855.101 692.313 853.951 692.434Q853.173 692.516 852.393 692.572Q851.612 692.628 850.831 692.658Q850.049 692.688 849.267 692.693Q848.484 692.697 847.702 692.676Q846.921 692.655 846.14 692.608Q845.359 692.561 844.58 692.488Q843.801 692.415 843.025 692.317Q842.249 692.218 841.476 692.094Q840.704 691.97 839.936 691.821Q839.168 691.671 838.406 691.496Q837.643 691.322 836.887 691.122Q836.13 690.922 835.381 690.698Q834.632 690.473 833.89 690.224Q833.148 689.975 832.415 689.702Q831.682 689.428 830.959 689.131Q830.235 688.833 829.522 688.512Q828.809 688.191 828.106 687.847Q827.404 687.502 826.713 687.135Q826.022 686.767 825.344 686.377Q824.666 685.987 824.001 685.575Q823.336 685.163 822.685 684.729Q822.034 684.295 821.398 683.84Q820.762 683.385 820.141 682.909Q819.52 682.433 818.915 681.937Q818.31 681.441 817.721 680.925Q817.133 680.409 816.562 679.874Q815.991 679.339 815.438 678.786Q814.885 678.232 814.35 677.661Q813.816 677.09 813.301 676.501Q812.785 675.912 812.289 675.307Q811.794 674.702 811.318 674.08Q810.843 673.459 810.388 672.822Q809.933 672.185 809.5 671.534Q809.066 670.883 808.654 670.217Q808.243 669.552 807.853 668.874Q807.463 668.195 807.096 667.504Q806.729 666.813 806.385 666.11Q806.041 665.408 805.72 664.694Q805.399 663.98 805.102 663.256Q804.805 662.532 804.532 661.799Q804.259 661.066 804.01 660.324Q803.762 659.582 803.537 658.832Q803.313 658.083 803.114 657.326Q802.915 656.569 802.74 655.807Q802.566 655.044 802.417 654.276Q802.268 653.507 802.144 652.735Q802.021 651.962 801.923 651.186Q801.825 650.41 801.752 649.63Q801.68 648.851 801.633 648.07Q801.586 647.289 801.565 646.507Q801.544 645.725 801.549 644.942Q801.554 644.16 801.584 643.378Q801.615 642.596 801.671 641.815Q801.727 641.035 801.809 640.257Q801.891 639.479 801.999 638.703Q802.107 637.928 802.24 637.157Q802.373 636.386 802.531 635.62Q802.69 634.854 802.873 634.093Q803.057 633.332 803.266 632.578Q803.474 631.824 803.708 631.077Q803.941 630.33 804.199 629.592Q804.457 628.853 804.739 628.123Q805.021 627.393 805.327 626.673Q805.632 625.953 805.962 625.243Q806.292 624.533 806.644 623.835Q806.997 623.136 807.372 622.45Q807.748 621.763 808.146 621.09Q808.544 620.416 808.964 619.756Q809.384 619.096 809.825 618.45Q810.267 617.804 810.729 617.172Q811.192 616.542 811.675 615.926Q812.158 615.311 812.661 614.711Q813.164 614.112 813.687 613.53Q814.209 612.947 814.751 612.383Q815.292 611.818 815.852 611.271Q816.412 610.725 816.989 610.197Q817.567 609.669 818.161 609.16Q818.756 608.652 819.367 608.163Q819.978 607.675 820.605 607.206Q821.232 606.738 821.873 606.291Q822.515 605.844 823.172 605.418Q823.828 604.992 824.498 604.588Q825.168 604.184 825.851 603.802Q826.534 603.42 827.229 603.061Q827.924 602.702 828.63 602.367Q829.337 602.031 830.054 601.718Q830.771 601.406 831.499 601.117Q832.226 600.829 832.962 600.564Q833.698 600.3 834.443 600.06Q835.188 599.82 835.94 599.605Q836.692 599.389 837.451 599.199Q838.209 599.009 838.974 598.843Q839.739 598.678 840.508 598.538Q841.278 598.398 842.052 598.284Q842.826 598.169 843.603 598.08Q844.38 597.991 845.16 597.928Z"/>
</svg>
